<svg width="100" height="100" viewBox="0 0 100 100" fill="none" xmlns="http://www.w3.org/2000/svg">
<g clip-path="url(#clip0_2558_1003)">
<path d="M65.4463 40.4463L91.6666 14.226V25C91.6666 27.3012 93.532 29.1666 95.8332 29.1666C98.1344 29.1666 100 27.3012 100 25V4.16699C100 4.02969 99.9928 3.89238 99.9793 3.75547C99.9732 3.69375 99.9617 3.63398 99.9529 3.57324C99.9424 3.49961 99.9338 3.42578 99.9193 3.35254C99.9055 3.28262 99.8863 3.21484 99.8689 3.14629C99.8531 3.0832 99.8393 3.01973 99.8203 2.95723C99.8 2.88984 99.7746 2.8248 99.751 2.75898C99.7285 2.69668 99.708 2.63379 99.6826 2.57227C99.6572 2.51074 99.6271 2.45195 99.599 2.39199C99.5691 2.32871 99.541 2.26484 99.5078 2.20273C99.477 2.14531 99.442 2.09063 99.4086 2.03477C99.3723 1.97402 99.3379 1.9125 99.2982 1.85312C99.257 1.79141 99.2109 1.7334 99.1666 1.67402C99.1295 1.62461 99.0951 1.57383 99.0557 1.52559C98.9694 1.42022 98.878 1.31912 98.7818 1.22266L98.7797 1.22031L98.7775 1.21836C98.681 1.12215 98.5798 1.0307 98.4744 0.944336C98.4262 0.904688 98.3754 0.870312 98.3258 0.833203C98.2666 0.788867 98.2086 0.742969 98.1469 0.701758C98.0875 0.662109 98.026 0.627734 97.965 0.591406C97.9092 0.558008 97.8547 0.523047 97.7973 0.492187C97.7352 0.458984 97.6715 0.430859 97.608 0.400977C97.548 0.372656 97.4891 0.342773 97.4277 0.317187C97.3662 0.291797 97.3033 0.271094 97.2408 0.248828C97.175 0.225195 97.1102 0.2 97.043 0.179688C96.9805 0.160742 96.9168 0.146875 96.8537 0.131055C96.7852 0.113672 96.7174 0.0945312 96.6477 0.0806641C96.5744 0.0662109 96.5006 0.0574219 96.427 0.046875C96.3662 0.0382812 96.3064 0.0265625 96.2447 0.0205078C96.108 0.00704192 95.9708 0.000197982 95.8334 0L75 0C72.6988 0 70.8334 1.86543 70.8334 4.1666C70.8334 6.46777 72.6988 8.3332 75 8.3332H85.774L59.5537 34.5537C57.9266 36.1809 57.9266 38.8191 59.5537 40.4463C61.1809 42.0734 63.8191 42.0734 65.4463 40.4463ZM34.5537 59.5537L8.3334 85.774V75C8.3334 72.6988 6.46797 70.8334 4.1668 70.8334C1.86543 70.8334 0 72.6988 0 75V95.8334C0 95.9707 0.00722656 96.1078 0.0207031 96.2445C0.0267578 96.3061 0.0382812 96.3658 0.0470703 96.4268C0.0576172 96.5004 0.0662109 96.5744 0.0808594 96.6475C0.0947266 96.7174 0.113867 96.785 0.13125 96.8535C0.14707 96.9168 0.160938 96.9803 0.179883 97.0428C0.200195 97.11 0.225391 97.175 0.249023 97.2406C0.271484 97.3031 0.291992 97.366 0.317383 97.4275C0.342773 97.4891 0.372852 97.5479 0.401172 97.6078C0.431055 97.6711 0.45918 97.735 0.492383 97.7971C0.523242 97.8545 0.558203 97.909 0.591602 97.9648C0.62793 98.0256 0.662305 98.0873 0.701953 98.1467C0.743164 98.2084 0.789063 98.2662 0.833398 98.3256C0.870508 98.3752 0.904883 98.426 0.944531 98.4742C1.03105 98.5797 1.12227 98.6811 1.21855 98.7773L1.22051 98.7795L1.22285 98.7816C1.31914 98.8777 1.42051 98.9689 1.52578 99.0555C1.57402 99.0951 1.6248 99.1295 1.67422 99.1664C1.73359 99.2107 1.7916 99.2568 1.85332 99.298C1.9125 99.3377 1.97402 99.3721 2.03496 99.4084C2.09082 99.4418 2.14531 99.4768 2.20293 99.5076C2.26504 99.5408 2.32891 99.5689 2.39219 99.5988C2.45215 99.6272 2.51113 99.657 2.57246 99.6824C2.63398 99.7078 2.69668 99.7283 2.75918 99.7508C2.825 99.7744 2.89004 99.7996 2.95742 99.8201C3.01992 99.8391 3.0834 99.8529 3.14648 99.8688C3.21504 99.8861 3.28281 99.9053 3.35273 99.9191C3.42598 99.9336 3.4998 99.9422 3.57344 99.9527C3.63418 99.9613 3.69414 99.973 3.75566 99.9791C3.89238 99.9926 4.02949 99.9998 4.1666 99.9998H25C27.3012 99.9998 29.1666 98.1344 29.1666 95.8332C29.1666 93.532 27.3012 91.6666 25 91.6666H14.226L40.4463 65.4463C42.0734 63.8191 42.0734 61.1809 40.4463 59.5537C38.8191 57.9266 36.1809 57.9266 34.5537 59.5537ZM99.1672 98.3252C99.2113 98.2662 99.2572 98.2084 99.2982 98.1469C99.3381 98.0875 99.3725 98.0258 99.4088 97.9648C99.442 97.9092 99.477 97.8547 99.5076 97.7975C99.5408 97.7353 99.5691 97.6713 99.599 97.6078C99.6273 97.548 99.657 97.4893 99.6826 97.4279C99.708 97.3664 99.7287 97.3035 99.751 97.241C99.7746 97.1752 99.7998 97.1104 99.8201 97.0432C99.8391 96.9807 99.8529 96.917 99.8688 96.8539C99.8861 96.7854 99.9053 96.7176 99.9191 96.6479C99.9336 96.5746 99.9422 96.5008 99.9529 96.4271C99.9615 96.3664 99.9732 96.3066 99.9793 96.2449C99.9929 96.1082 99.9998 95.9708 100 95.8334V75C100 72.6988 98.1346 70.8334 95.8334 70.8334C93.5322 70.8334 91.6668 72.6988 91.6668 75V85.774L65.4463 59.5537C63.8191 57.9266 61.1809 57.9266 59.5537 59.5537C57.9266 61.1809 57.9266 63.8191 59.5537 65.4463L85.774 91.6666H75C72.6988 91.6666 70.8334 93.532 70.8334 95.8332C70.8334 98.1344 72.6988 100 75 100H95.8334C95.9707 100 96.1078 99.9928 96.2445 99.9793C96.3061 99.9732 96.3658 99.9617 96.4268 99.9529C96.5004 99.9424 96.5744 99.9338 96.6475 99.9191C96.7174 99.9053 96.785 99.8861 96.8535 99.8688C96.9168 99.8529 96.9803 99.8391 97.0428 99.8201C97.11 99.7998 97.175 99.7746 97.2406 99.751C97.3031 99.7285 97.366 99.708 97.4275 99.6826C97.4889 99.6572 97.5477 99.6273 97.6074 99.599C97.6709 99.5691 97.735 99.541 97.7971 99.5076C97.8543 99.477 97.9088 99.442 97.9645 99.4088C98.0254 99.3725 98.0871 99.3379 98.1465 99.2982C98.208 99.257 98.2658 99.2113 98.3248 99.1672C98.3746 99.1299 98.4256 99.0953 98.474 99.0557C98.5785 98.9699 98.6791 98.8793 98.7748 98.7838L98.7793 98.7797L98.7834 98.7752C98.8787 98.6795 98.9693 98.5791 99.0553 98.4744C99.0953 98.426 99.1299 98.375 99.1672 98.3252ZM14.226 8.3334H25C27.3012 8.3334 29.1666 6.46797 29.1666 4.1668C29.1666 1.86543 27.3012 0 25 0H4.16641C4.0293 0 3.89199 0.00722656 3.75547 0.0207031C3.69375 0.0267578 3.63398 0.0382812 3.57324 0.0470703C3.49961 0.0576172 3.42578 0.0662109 3.35254 0.0806641C3.28262 0.0945312 3.21484 0.113672 3.14629 0.131055C3.0832 0.146875 3.01973 0.160742 2.95723 0.179688C2.88984 0.2 2.8248 0.225391 2.75898 0.249023C2.69668 0.271484 2.63379 0.291992 2.57227 0.317383C2.51074 0.342969 2.45156 0.372852 2.3916 0.401367C2.32852 0.431055 2.26465 0.45918 2.20273 0.492383C2.14512 0.523242 2.09043 0.558398 2.03438 0.591797C1.97383 0.62793 1.9123 0.662109 1.85312 0.701758C1.79121 0.743164 1.73301 0.789258 1.67344 0.833789C1.62422 0.870703 1.57363 0.904883 1.52578 0.944336C1.31339 1.11864 1.11864 1.31339 0.944336 1.52578C0.904883 1.57363 0.870703 1.62422 0.833789 1.67363C0.789258 1.7332 0.743164 1.79141 0.701758 1.85332C0.662109 1.9125 0.62793 1.97383 0.591602 2.03457C0.558203 2.09043 0.523047 2.14531 0.492187 2.20293C0.458984 2.26484 0.431055 2.32852 0.401172 2.3918C0.372852 2.45176 0.342773 2.51094 0.317187 2.57246C0.291797 2.63398 0.271289 2.69668 0.248828 2.75918C0.225195 2.825 0.2 2.89004 0.179492 2.95742C0.160547 3.01992 0.14668 3.0834 0.130859 3.14648C0.113477 3.21504 0.0943359 3.28281 0.0804688 3.35273C0.0660156 3.42598 0.0574219 3.4998 0.046875 3.57344C0.0382812 3.63418 0.0265625 3.69414 0.0205078 3.75566C0.00703226 3.89223 0.000188279 4.02937 0 4.1666L0 25C0 27.3012 1.86543 29.1666 4.1666 29.1666C6.46777 29.1666 8.3332 27.3012 8.3332 25V14.226L34.5535 40.4463C36.1807 42.0734 38.8189 42.0734 40.4461 40.4463C42.0732 38.8191 42.0732 36.1809 40.4461 34.5537L14.226 8.3334Z" fill="white"/>
</g>
<defs>
<clipPath id="clip0_2558_1003">
<rect width="100" height="100" fill="white"/>
</clipPath>
</defs>
</svg>
