<svg width="90" height="30" viewBox="0 0 90 30" fill="none" xmlns="http://www.w3.org/2000/svg">
<g clip-path="url(#clip0_102_299)">
<path d="M32.4518 27.52C32.5052 27.52 32.5318 27.6 32.5318 27.76C32.5318 27.92 32.5052 28 32.4518 28C31.5452 28 30.8252 27.9867 30.2918 27.96L27.3318 27.92L24.3318 27.96C23.8252 27.9867 23.1318 28 22.2518 28C22.1718 28 22.1318 27.92 22.1318 27.76C22.1318 27.6 22.1718 27.52 22.2518 27.52C23.3718 27.52 24.1318 27.3867 24.5318 27.12C24.9318 26.8533 25.1318 26.2933 25.1318 25.44L25.0918 24.76L24.2518 8.4L16.0118 27.72C15.9585 27.8267 15.8518 27.88 15.6918 27.88C15.5318 27.88 15.4252 27.8267 15.3718 27.72L5.25184 8.48L4.93184 22.92C4.90517 24.36 5.18517 25.4933 5.77184 26.32C6.38517 27.12 7.2385 27.52 8.33184 27.52C8.41184 27.52 8.45184 27.6 8.45184 27.76C8.45184 27.92 8.41184 28 8.33184 28C7.61184 28 7.05184 27.9867 6.65184 27.96L4.45184 27.92L1.93184 27.96C1.50517 27.9867 0.931836 28 0.211836 28C0.131836 28 0.0918359 27.92 0.0918359 27.76C0.0918359 27.6 0.131836 27.52 0.211836 27.52C1.30517 27.52 2.17184 27.1067 2.81184 26.28C3.45184 25.4533 3.78517 24.3333 3.81184 22.92L4.17184 6.36L4.13184 6.32C3.5985 5.33333 3.0385 4.61333 2.45184 4.16C1.89184 3.70667 1.2385 3.48 0.491836 3.48C0.411836 3.48 0.371836 3.4 0.371836 3.24C0.371836 3.08 0.411836 3 0.491836 3L2.37184 3.04C2.74517 3.06667 3.22517 3.08 3.81184 3.08L5.93184 3.04C6.17184 3.01333 6.4785 3 6.85184 3C7.1985 3 7.46517 3.12 7.65184 3.36C7.8385 3.6 8.18517 4.17333 8.69184 5.08L17.4118 21.44L25.0118 4C25.1718 3.62667 25.3318 3.37333 25.4918 3.24C25.6785 3.08 25.9185 3 26.2118 3C26.4518 3 26.7185 3.01333 27.0118 3.04C27.3318 3.06667 27.6918 3.08 28.0918 3.08L30.4518 3.04C30.8252 3.01333 31.3585 3 32.0518 3C32.1318 3 32.1718 3.08 32.1718 3.24C32.1718 3.4 32.1318 3.48 32.0518 3.48C30.7985 3.48 29.8918 3.73333 29.3318 4.24C28.7718 4.74666 28.5185 5.53333 28.5718 6.6L29.5318 24.76C29.5852 25.5867 29.6785 26.1867 29.8118 26.56C29.9718 26.9333 30.2385 27.1867 30.6118 27.32C31.0118 27.4533 31.6252 27.52 32.4518 27.52ZM34.9887 28C34.9087 28 34.8687 27.92 34.8687 27.76C34.8687 27.6 34.9087 27.52 34.9887 27.52C35.8154 27.52 36.3754 27.3333 36.6687 26.96C36.962 26.56 37.1087 25.8267 37.1087 24.76V17.6C37.1087 16.6933 37.0154 16.04 36.8287 15.64C36.642 15.24 36.3354 15.04 35.9087 15.04C35.562 15.04 35.0687 15.1867 34.4287 15.48H34.3887C34.282 15.48 34.202 15.4133 34.1487 15.28C34.0954 15.12 34.1087 15.0267 34.1887 15L40.2287 12.2L40.3487 12.16C40.482 12.16 40.6154 12.2267 40.7487 12.36C40.882 12.4933 40.9487 12.6133 40.9487 12.72V13.6C40.8954 14.6667 40.8687 15.9733 40.8687 17.52V24.76C40.8687 25.8267 41.0154 26.56 41.3087 26.96C41.6287 27.3333 42.202 27.52 43.0287 27.52C43.1087 27.52 43.1487 27.6 43.1487 27.76C43.1487 27.92 43.1087 28 43.0287 28C42.3354 28 41.7887 27.9867 41.3887 27.96L38.9887 27.92L36.6287 27.96C36.2287 27.9867 35.682 28 34.9887 28ZM38.8287 8.2C38.0554 8.2 37.4554 7.98667 37.0287 7.56C36.602 7.13333 36.3887 6.53333 36.3887 5.76C36.3887 5.06667 36.602 4.52 37.0287 4.12C37.482 3.69333 38.082 3.48 38.8287 3.48C39.5754 3.48 40.1487 3.68 40.5487 4.08C40.9487 4.48 41.1487 5.04 41.1487 5.76C41.1487 6.53333 40.9487 7.13333 40.5487 7.56C40.1487 7.98667 39.5754 8.2 38.8287 8.2ZM56.8965 25.2C57.0032 25.2 57.0832 25.2533 57.1365 25.36C57.2165 25.4667 57.2165 25.5467 57.1365 25.6C56.1499 26.5867 55.1899 27.32 54.2565 27.8C53.3232 28.2533 52.3365 28.48 51.2965 28.48C50.1232 28.48 49.1232 28.2 48.2965 27.64C47.4699 27.08 47.0565 26.1333 47.0565 24.8V15.92C47.0565 15.0933 46.9099 14.52 46.6165 14.2C46.3232 13.88 45.7899 13.72 45.0165 13.72C44.9899 13.72 44.9499 13.68 44.8965 13.6C44.8699 13.52 44.8565 13.44 44.8565 13.36C44.8565 13.2533 44.8699 13.1733 44.8965 13.12C44.9232 13.04 44.9632 13 45.0165 13C46.3765 12.9467 47.4699 12.6533 48.2965 12.12C49.1499 11.5867 49.8032 10.7733 50.2565 9.68C50.3099 9.57333 50.4165 9.52 50.5765 9.52C50.7632 9.52 50.8565 9.57333 50.8565 9.68V12.88C52.4032 12.8533 54.1365 12.7333 56.0565 12.52C56.1099 12.52 56.1632 12.6267 56.2165 12.84C56.2965 13.0267 56.3365 13.24 56.3365 13.48C56.3365 13.7467 56.2832 14.0133 56.1765 14.28C56.0965 14.52 56.0032 14.6267 55.8965 14.6C54.1632 14.2267 52.4832 14.0267 50.8565 14V23.48C50.8565 24.4933 51.1099 25.24 51.6165 25.72C52.1499 26.2 52.8432 26.44 53.6965 26.44C54.7632 26.44 55.8032 26.04 56.8165 25.24L56.8965 25.2ZM70.334 25.2C70.4407 25.2 70.5207 25.2533 70.574 25.36C70.654 25.4667 70.654 25.5467 70.574 25.6C69.5874 26.5867 68.6274 27.32 67.694 27.8C66.7607 28.2533 65.774 28.48 64.734 28.48C63.5607 28.48 62.5607 28.2 61.734 27.64C60.9074 27.08 60.494 26.1333 60.494 24.8V15.92C60.494 15.0933 60.3474 14.52 60.054 14.2C59.7607 13.88 59.2274 13.72 58.454 13.72C58.4274 13.72 58.3874 13.68 58.334 13.6C58.3074 13.52 58.294 13.44 58.294 13.36C58.294 13.2533 58.3074 13.1733 58.334 13.12C58.3607 13.04 58.4007 13 58.454 13C59.814 12.9467 60.9074 12.6533 61.734 12.12C62.5874 11.5867 63.2407 10.7733 63.694 9.68C63.7474 9.57333 63.854 9.52 64.014 9.52C64.2007 9.52 64.294 9.57333 64.294 9.68V12.88C65.8407 12.8533 67.574 12.7333 69.494 12.52C69.5474 12.52 69.6007 12.6267 69.654 12.84C69.734 13.0267 69.774 13.24 69.774 13.48C69.774 13.7467 69.7207 14.0133 69.614 14.28C69.534 14.52 69.4407 14.6267 69.334 14.6C67.6007 14.2267 65.9207 14.0267 64.294 14V23.48C64.294 24.4933 64.5474 25.24 65.054 25.72C65.5874 26.2 66.2807 26.44 67.134 26.44C68.2007 26.44 69.2407 26.04 70.254 25.24L70.334 25.2ZM72.3715 28C72.2915 28 72.2515 27.92 72.2515 27.76C72.2515 27.6 72.2915 27.52 72.3715 27.52C73.1982 27.52 73.7582 27.3333 74.0515 26.96C74.3449 26.56 74.4915 25.8267 74.4915 24.76V17.6C74.4915 16.6933 74.3982 16.04 74.2115 15.64C74.0249 15.24 73.7182 15.04 73.2915 15.04C72.9449 15.04 72.4515 15.1867 71.8115 15.48H71.7715C71.6649 15.48 71.5849 15.4133 71.5315 15.28C71.4782 15.12 71.4915 15.0267 71.5715 15L77.6115 12.2L77.7315 12.16C77.8649 12.16 77.9982 12.2267 78.1315 12.36C78.2649 12.4933 78.3315 12.6133 78.3315 12.72V13.6C78.2782 14.6667 78.2515 15.9733 78.2515 17.52V24.76C78.2515 25.8267 78.3982 26.56 78.6915 26.96C79.0115 27.3333 79.5849 27.52 80.4115 27.52C80.4915 27.52 80.5315 27.6 80.5315 27.76C80.5315 27.92 80.4915 28 80.4115 28C79.7182 28 79.1715 27.9867 78.7715 27.96L76.3715 27.92L74.0115 27.96C73.6115 27.9867 73.0649 28 72.3715 28ZM76.2115 8.2C75.4382 8.2 74.8382 7.98667 74.4115 7.56C73.9849 7.13333 73.7715 6.53333 73.7715 5.76C73.7715 5.06667 73.9849 4.52 74.4115 4.12C74.8649 3.69333 75.4649 3.48 76.2115 3.48C76.9582 3.48 77.5315 3.68 77.9315 4.08C78.3315 4.48 78.5315 5.04 78.5315 5.76C78.5315 6.53333 78.3315 7.13333 77.9315 7.56C77.5315 7.98667 76.9582 8.2 76.2115 8.2ZM85.5193 28.44C84.7727 28.44 84.1727 28.2267 83.7193 27.8C83.2927 27.3467 83.0793 26.7467 83.0793 26C83.0793 25.3067 83.2927 24.7467 83.7193 24.32C84.1727 23.8933 84.7727 23.68 85.5193 23.68C86.266 23.68 86.8393 23.8933 87.2393 24.32C87.666 24.72 87.8793 25.28 87.8793 26C87.8793 26.7733 87.666 27.3733 87.2393 27.8C86.8393 28.2267 86.266 28.44 85.5193 28.44Z" fill="#333333"/>
</g>
<defs>
<clipPath id="clip0_102_299">
<rect width="90" height="30" fill="white"/>
</clipPath>
</defs>
</svg>
