<svg width="20" height="20" viewBox="0 0 20 20" fill="none" xmlns="http://www.w3.org/2000/svg">
<path d="M14.9993 10.8327H4.99935C4.49935 10.8327 4.16602 10.4993 4.16602 9.99935C4.16602 9.49935 4.49935 9.16602 4.99935 9.16602H14.9993C15.4993 9.16602 15.8327 9.49935 15.8327 9.99935C15.8327 10.4993 15.4993 10.8327 14.9993 10.8327ZM12.4993 15.8327H7.49935C6.99935 15.8327 6.66602 15.4994 6.66602 14.9994C6.66602 14.4994 6.99935 14.166 7.49935 14.166H12.4993C12.9993 14.166 13.3327 14.4994 13.3327 14.9994C13.3327 15.4994 12.9993 15.8327 12.4993 15.8327ZM17.4993 5.83268H2.49935C1.99935 5.83268 1.66602 5.49935 1.66602 4.99935C1.66602 4.49935 1.99935 4.16602 2.49935 4.16602H17.4993C17.9993 4.16602 18.3327 4.49935 18.3327 4.99935C18.3327 5.49935 17.9993 5.83268 17.4993 5.83268Z" fill="black"/>
</svg>
